<mxfile host="app.diagrams.net" modified="2022-05-31T13:41:48.174Z" agent="5.0 (Windows NT 10.0; Win64; x64) AppleWebKit/537.36 (KHTML, like Gecko) Chrome/101.0.4951.67 Safari/537.36" etag="_i0RFSfzEZ5sZhwv5GKO" version="18.1.3" type="github">
  <diagram id="C5RBs43oDa-KdzZeNtuy" name="Page-1">
    <mxGraphModel dx="1673" dy="934" grid="1" gridSize="10" guides="1" tooltips="1" connect="1" arrows="1" fold="1" page="1" pageScale="1" pageWidth="827" pageHeight="1169" math="0" shadow="0">
      <root>
        <object label="" Master="" id="WIyWlLk6GJQsqaUBKTNV-0">
          <mxCell />
        </object>
        <mxCell id="WIyWlLk6GJQsqaUBKTNV-1" parent="WIyWlLk6GJQsqaUBKTNV-0" />
        <mxCell id="meUcSHUeITum9BE1VtoY-21" style="edgeStyle=orthogonalEdgeStyle;rounded=0;orthogonalLoop=1;jettySize=auto;html=1;exitX=1;exitY=0.5;exitDx=0;exitDy=0;entryX=0;entryY=0.5;entryDx=0;entryDy=0;" edge="1" parent="WIyWlLk6GJQsqaUBKTNV-1" source="WIyWlLk6GJQsqaUBKTNV-3" target="meUcSHUeITum9BE1VtoY-17">
          <mxGeometry relative="1" as="geometry" />
        </mxCell>
        <mxCell id="WIyWlLk6GJQsqaUBKTNV-3" value="Power On" style="rounded=1;whiteSpace=wrap;html=1;fontSize=12;glass=0;strokeWidth=1;shadow=0;" parent="WIyWlLk6GJQsqaUBKTNV-1" vertex="1">
          <mxGeometry x="40" y="40" width="120" height="40" as="geometry" />
        </mxCell>
        <mxCell id="WIyWlLk6GJQsqaUBKTNV-6" value="If StatusCentrala == 1" style="rhombus;whiteSpace=wrap;html=1;shadow=0;fontFamily=Helvetica;fontSize=12;align=center;strokeWidth=1;spacing=6;spacingTop=-4;" parent="WIyWlLk6GJQsqaUBKTNV-1" vertex="1">
          <mxGeometry x="57.24999999999999" y="1655" width="152" height="90" as="geometry" />
        </mxCell>
        <mxCell id="meUcSHUeITum9BE1VtoY-23" style="edgeStyle=orthogonalEdgeStyle;rounded=0;orthogonalLoop=1;jettySize=auto;html=1;exitX=1;exitY=0.5;exitDx=0;exitDy=0;entryX=0;entryY=0.5;entryDx=0;entryDy=0;" edge="1" parent="WIyWlLk6GJQsqaUBKTNV-1" source="meUcSHUeITum9BE1VtoY-15" target="meUcSHUeITum9BE1VtoY-62">
          <mxGeometry relative="1" as="geometry">
            <mxPoint x="520" y="60" as="targetPoint" />
          </mxGeometry>
        </mxCell>
        <mxCell id="meUcSHUeITum9BE1VtoY-15" value="Serial initialization" style="rounded=1;whiteSpace=wrap;html=1;fontSize=12;glass=0;strokeWidth=1;shadow=0;" vertex="1" parent="WIyWlLk6GJQsqaUBKTNV-1">
          <mxGeometry x="360" y="40" width="120" height="40" as="geometry" />
        </mxCell>
        <mxCell id="meUcSHUeITum9BE1VtoY-22" style="edgeStyle=orthogonalEdgeStyle;rounded=0;orthogonalLoop=1;jettySize=auto;html=1;exitX=1;exitY=0.5;exitDx=0;exitDy=0;entryX=0;entryY=0.5;entryDx=0;entryDy=0;" edge="1" parent="WIyWlLk6GJQsqaUBKTNV-1" source="meUcSHUeITum9BE1VtoY-17" target="meUcSHUeITum9BE1VtoY-15">
          <mxGeometry relative="1" as="geometry" />
        </mxCell>
        <mxCell id="meUcSHUeITum9BE1VtoY-17" value="Set pinMode Releu=OUTPUT" style="rounded=1;whiteSpace=wrap;html=1;fontSize=12;glass=0;strokeWidth=1;shadow=0;" vertex="1" parent="WIyWlLk6GJQsqaUBKTNV-1">
          <mxGeometry x="200" y="40" width="120" height="40" as="geometry" />
        </mxCell>
        <mxCell id="meUcSHUeITum9BE1VtoY-18" style="edgeStyle=orthogonalEdgeStyle;rounded=0;orthogonalLoop=1;jettySize=auto;html=1;exitX=0.5;exitY=1;exitDx=0;exitDy=0;" edge="1" parent="WIyWlLk6GJQsqaUBKTNV-1" source="meUcSHUeITum9BE1VtoY-15" target="meUcSHUeITum9BE1VtoY-15">
          <mxGeometry relative="1" as="geometry" />
        </mxCell>
        <mxCell id="meUcSHUeITum9BE1VtoY-25" style="edgeStyle=orthogonalEdgeStyle;rounded=0;orthogonalLoop=1;jettySize=auto;html=1;exitX=1;exitY=0.5;exitDx=0;exitDy=0;entryX=0;entryY=0.5;entryDx=0;entryDy=0;" edge="1" parent="WIyWlLk6GJQsqaUBKTNV-1" source="meUcSHUeITum9BE1VtoY-62" target="meUcSHUeITum9BE1VtoY-24">
          <mxGeometry relative="1" as="geometry">
            <mxPoint x="640" y="60" as="sourcePoint" />
          </mxGeometry>
        </mxCell>
        <mxCell id="meUcSHUeITum9BE1VtoY-28" style="edgeStyle=orthogonalEdgeStyle;rounded=0;orthogonalLoop=1;jettySize=auto;html=1;exitX=0.5;exitY=1;exitDx=0;exitDy=0;entryX=0.5;entryY=0;entryDx=0;entryDy=0;" edge="1" parent="WIyWlLk6GJQsqaUBKTNV-1" source="meUcSHUeITum9BE1VtoY-24" target="meUcSHUeITum9BE1VtoY-26">
          <mxGeometry relative="1" as="geometry" />
        </mxCell>
        <mxCell id="meUcSHUeITum9BE1VtoY-24" value="Set WI-FI and Connect to WI-Fi Modem" style="rounded=1;whiteSpace=wrap;html=1;fontSize=12;glass=0;strokeWidth=1;shadow=0;" vertex="1" parent="WIyWlLk6GJQsqaUBKTNV-1">
          <mxGeometry x="698.5" y="40" width="120" height="40" as="geometry" />
        </mxCell>
        <mxCell id="meUcSHUeITum9BE1VtoY-29" style="edgeStyle=orthogonalEdgeStyle;rounded=0;orthogonalLoop=1;jettySize=auto;html=1;exitX=1;exitY=0.5;exitDx=0;exitDy=0;entryX=0;entryY=0.5;entryDx=0;entryDy=0;" edge="1" parent="WIyWlLk6GJQsqaUBKTNV-1" source="meUcSHUeITum9BE1VtoY-26" target="meUcSHUeITum9BE1VtoY-60">
          <mxGeometry relative="1" as="geometry">
            <mxPoint x="200" y="140" as="targetPoint" />
          </mxGeometry>
        </mxCell>
        <mxCell id="meUcSHUeITum9BE1VtoY-26" value="Start Server Web page" style="rounded=1;whiteSpace=wrap;html=1;fontSize=12;glass=0;strokeWidth=1;shadow=0;" vertex="1" parent="WIyWlLk6GJQsqaUBKTNV-1">
          <mxGeometry x="40" y="120" width="120" height="40" as="geometry" />
        </mxCell>
        <mxCell id="meUcSHUeITum9BE1VtoY-32" style="edgeStyle=orthogonalEdgeStyle;rounded=0;orthogonalLoop=1;jettySize=auto;html=1;exitX=1;exitY=0.5;exitDx=0;exitDy=0;entryX=0.5;entryY=0;entryDx=0;entryDy=0;" edge="1" parent="WIyWlLk6GJQsqaUBKTNV-1" source="meUcSHUeITum9BE1VtoY-60" target="meUcSHUeITum9BE1VtoY-30">
          <mxGeometry relative="1" as="geometry">
            <mxPoint x="320" y="140" as="sourcePoint" />
          </mxGeometry>
        </mxCell>
        <mxCell id="meUcSHUeITum9BE1VtoY-36" style="edgeStyle=orthogonalEdgeStyle;rounded=0;orthogonalLoop=1;jettySize=auto;html=1;entryX=0.5;entryY=0;entryDx=0;entryDy=0;" edge="1" parent="WIyWlLk6GJQsqaUBKTNV-1" source="meUcSHUeITum9BE1VtoY-30" target="meUcSHUeITum9BE1VtoY-35">
          <mxGeometry relative="1" as="geometry" />
        </mxCell>
        <mxCell id="meUcSHUeITum9BE1VtoY-30" value="webSocket.onEvent(webSocketEvent)" style="rounded=1;whiteSpace=wrap;html=1;fontSize=12;glass=0;strokeWidth=1;shadow=0;perimeterSpacing=1;" vertex="1" parent="WIyWlLk6GJQsqaUBKTNV-1">
          <mxGeometry x="248" y="170" width="220" height="40" as="geometry" />
        </mxCell>
        <mxCell id="meUcSHUeITum9BE1VtoY-35" value="Message receive =WStype_TEXT&amp;nbsp;" style="rhombus;whiteSpace=wrap;html=1;strokeWidth=1;" vertex="1" parent="WIyWlLk6GJQsqaUBKTNV-1">
          <mxGeometry x="283" y="230" width="150" height="100" as="geometry" />
        </mxCell>
        <mxCell id="meUcSHUeITum9BE1VtoY-64" style="edgeStyle=orthogonalEdgeStyle;rounded=0;orthogonalLoop=1;jettySize=auto;html=1;exitX=0.5;exitY=1;exitDx=0;exitDy=0;entryX=0.5;entryY=0;entryDx=0;entryDy=0;" edge="1" parent="WIyWlLk6GJQsqaUBKTNV-1" source="meUcSHUeITum9BE1VtoY-38" target="meUcSHUeITum9BE1VtoY-63">
          <mxGeometry relative="1" as="geometry" />
        </mxCell>
        <mxCell id="meUcSHUeITum9BE1VtoY-38" value="Update timeval &amp;amp; tempval" style="rounded=1;whiteSpace=wrap;html=1;strokeWidth=1;" vertex="1" parent="WIyWlLk6GJQsqaUBKTNV-1">
          <mxGeometry x="422" y="408.75" width="120" height="60" as="geometry" />
        </mxCell>
        <mxCell id="meUcSHUeITum9BE1VtoY-42" style="edgeStyle=orthogonalEdgeStyle;rounded=0;orthogonalLoop=1;jettySize=auto;html=1;exitX=0.5;exitY=1;exitDx=0;exitDy=0;entryX=0.5;entryY=0;entryDx=0;entryDy=0;" edge="1" parent="WIyWlLk6GJQsqaUBKTNV-1" source="meUcSHUeITum9BE1VtoY-39" target="meUcSHUeITum9BE1VtoY-41">
          <mxGeometry relative="1" as="geometry" />
        </mxCell>
        <mxCell id="meUcSHUeITum9BE1VtoY-39" value="&lt;span style=&quot;&quot;&gt;deserializeJson&lt;/span&gt;(doc_rx, payload)" style="shape=process;whiteSpace=wrap;html=1;backgroundOutline=1;strokeWidth=1;" vertex="1" parent="WIyWlLk6GJQsqaUBKTNV-1">
          <mxGeometry x="477" y="260" width="235" height="37.5" as="geometry" />
        </mxCell>
        <mxCell id="meUcSHUeITum9BE1VtoY-41" value="If msg_type = 1" style="rhombus;whiteSpace=wrap;html=1;strokeWidth=1;" vertex="1" parent="WIyWlLk6GJQsqaUBKTNV-1">
          <mxGeometry x="544.5" y="328.75" width="100" height="90" as="geometry" />
        </mxCell>
        <mxCell id="meUcSHUeITum9BE1VtoY-45" value="" style="endArrow=classic;html=1;rounded=0;exitX=1;exitY=0.5;exitDx=0;exitDy=0;" edge="1" parent="WIyWlLk6GJQsqaUBKTNV-1" source="meUcSHUeITum9BE1VtoY-41" target="meUcSHUeITum9BE1VtoY-49">
          <mxGeometry relative="1" as="geometry">
            <mxPoint x="497" y="378.75" as="sourcePoint" />
            <mxPoint x="717" y="418.75" as="targetPoint" />
            <Array as="points">
              <mxPoint x="717" y="373.75" />
            </Array>
          </mxGeometry>
        </mxCell>
        <mxCell id="meUcSHUeITum9BE1VtoY-46" value="No" style="edgeLabel;resizable=0;html=1;align=center;verticalAlign=middle;strokeWidth=1;" connectable="0" vertex="1" parent="meUcSHUeITum9BE1VtoY-45">
          <mxGeometry relative="1" as="geometry">
            <mxPoint x="-21" as="offset" />
          </mxGeometry>
        </mxCell>
        <mxCell id="meUcSHUeITum9BE1VtoY-47" value="" style="endArrow=classic;html=1;rounded=0;exitX=0;exitY=0.5;exitDx=0;exitDy=0;entryX=0.5;entryY=0;entryDx=0;entryDy=0;" edge="1" parent="WIyWlLk6GJQsqaUBKTNV-1" source="meUcSHUeITum9BE1VtoY-41" target="meUcSHUeITum9BE1VtoY-38">
          <mxGeometry relative="1" as="geometry">
            <mxPoint x="497" y="378.75" as="sourcePoint" />
            <mxPoint x="476" y="408.75" as="targetPoint" />
            <Array as="points">
              <mxPoint x="482" y="373.75" />
            </Array>
          </mxGeometry>
        </mxCell>
        <mxCell id="meUcSHUeITum9BE1VtoY-48" value="Yes" style="edgeLabel;resizable=0;html=1;align=center;verticalAlign=middle;strokeWidth=1;" connectable="0" vertex="1" parent="meUcSHUeITum9BE1VtoY-47">
          <mxGeometry relative="1" as="geometry">
            <mxPoint x="24" as="offset" />
          </mxGeometry>
        </mxCell>
        <mxCell id="meUcSHUeITum9BE1VtoY-52" style="edgeStyle=orthogonalEdgeStyle;rounded=0;orthogonalLoop=1;jettySize=auto;html=1;" edge="1" parent="WIyWlLk6GJQsqaUBKTNV-1" source="meUcSHUeITum9BE1VtoY-49" target="meUcSHUeITum9BE1VtoY-50">
          <mxGeometry relative="1" as="geometry" />
        </mxCell>
        <mxCell id="meUcSHUeITum9BE1VtoY-49" value="WS_ProgramareUpdate()" style="shape=process;whiteSpace=wrap;html=1;backgroundOutline=1;strokeWidth=1;" vertex="1" parent="WIyWlLk6GJQsqaUBKTNV-1">
          <mxGeometry x="627" y="408.75" width="175" height="37.5" as="geometry" />
        </mxCell>
        <mxCell id="meUcSHUeITum9BE1VtoY-54" style="edgeStyle=orthogonalEdgeStyle;rounded=0;orthogonalLoop=1;jettySize=auto;html=1;entryX=0.5;entryY=0;entryDx=0;entryDy=0;" edge="1" parent="WIyWlLk6GJQsqaUBKTNV-1" source="meUcSHUeITum9BE1VtoY-50" target="meUcSHUeITum9BE1VtoY-59">
          <mxGeometry relative="1" as="geometry">
            <mxPoint x="714.5" y="526.25" as="targetPoint" />
          </mxGeometry>
        </mxCell>
        <mxCell id="meUcSHUeITum9BE1VtoY-50" value="Get timeval &amp;amp; tempval to JsonObject" style="rounded=1;whiteSpace=wrap;html=1;strokeWidth=1;" vertex="1" parent="WIyWlLk6GJQsqaUBKTNV-1">
          <mxGeometry x="654.5" y="470" width="120" height="30" as="geometry" />
        </mxCell>
        <mxCell id="meUcSHUeITum9BE1VtoY-56" style="edgeStyle=orthogonalEdgeStyle;rounded=0;orthogonalLoop=1;jettySize=auto;html=1;exitX=0.5;exitY=1;exitDx=0;exitDy=0;" edge="1" parent="WIyWlLk6GJQsqaUBKTNV-1" source="meUcSHUeITum9BE1VtoY-59" target="meUcSHUeITum9BE1VtoY-55">
          <mxGeometry relative="1" as="geometry">
            <mxPoint x="714.5" y="556.25" as="sourcePoint" />
          </mxGeometry>
        </mxCell>
        <mxCell id="meUcSHUeITum9BE1VtoY-65" style="edgeStyle=orthogonalEdgeStyle;rounded=0;orthogonalLoop=1;jettySize=auto;html=1;entryX=1;entryY=0.5;entryDx=0;entryDy=0;" edge="1" parent="WIyWlLk6GJQsqaUBKTNV-1" source="meUcSHUeITum9BE1VtoY-55" target="meUcSHUeITum9BE1VtoY-63">
          <mxGeometry relative="1" as="geometry" />
        </mxCell>
        <mxCell id="meUcSHUeITum9BE1VtoY-55" value="webSocket.broadcastTXT(jsonString);" style="rounded=1;whiteSpace=wrap;html=1;strokeWidth=1;" vertex="1" parent="WIyWlLk6GJQsqaUBKTNV-1">
          <mxGeometry x="605.75" y="576.25" width="217.5" height="30" as="geometry" />
        </mxCell>
        <mxCell id="meUcSHUeITum9BE1VtoY-57" value="h" style="endArrow=classic;html=1;rounded=0;exitX=1;exitY=0.5;exitDx=0;exitDy=0;entryX=0;entryY=0.5;entryDx=0;entryDy=0;" edge="1" parent="WIyWlLk6GJQsqaUBKTNV-1" source="meUcSHUeITum9BE1VtoY-35" target="meUcSHUeITum9BE1VtoY-39">
          <mxGeometry relative="1" as="geometry">
            <mxPoint x="448" y="300" as="sourcePoint" />
            <mxPoint x="533" y="279.5" as="targetPoint" />
          </mxGeometry>
        </mxCell>
        <mxCell id="meUcSHUeITum9BE1VtoY-58" value="Yes" style="edgeLabel;resizable=0;html=1;align=center;verticalAlign=middle;strokeWidth=1;" connectable="0" vertex="1" parent="meUcSHUeITum9BE1VtoY-57">
          <mxGeometry relative="1" as="geometry" />
        </mxCell>
        <mxCell id="meUcSHUeITum9BE1VtoY-59" value="serializeJson(doc2_tx, jsonString);" style="shape=process;whiteSpace=wrap;html=1;backgroundOutline=1;strokeWidth=1;" vertex="1" parent="WIyWlLk6GJQsqaUBKTNV-1">
          <mxGeometry x="627" y="517" width="175" height="37.5" as="geometry" />
        </mxCell>
        <mxCell id="meUcSHUeITum9BE1VtoY-60" value="&lt;span style=&quot;&quot;&gt;webSocket.begin()&lt;/span&gt;" style="shape=process;whiteSpace=wrap;html=1;backgroundOutline=1;strokeWidth=1;" vertex="1" parent="WIyWlLk6GJQsqaUBKTNV-1">
          <mxGeometry x="210" y="124.5" width="130" height="31" as="geometry" />
        </mxCell>
        <mxCell id="meUcSHUeITum9BE1VtoY-62" value="&lt;span style=&quot;&quot;&gt;DataStorageRead(0, 130)&lt;/span&gt;" style="shape=process;whiteSpace=wrap;html=1;backgroundOutline=1;strokeWidth=1;" vertex="1" parent="WIyWlLk6GJQsqaUBKTNV-1">
          <mxGeometry x="501" y="45" width="180" height="30" as="geometry" />
        </mxCell>
        <mxCell id="meUcSHUeITum9BE1VtoY-69" value="" style="edgeStyle=orthogonalEdgeStyle;rounded=0;orthogonalLoop=1;jettySize=auto;html=1;" edge="1" parent="WIyWlLk6GJQsqaUBKTNV-1" source="meUcSHUeITum9BE1VtoY-63" target="meUcSHUeITum9BE1VtoY-67">
          <mxGeometry relative="1" as="geometry" />
        </mxCell>
        <mxCell id="meUcSHUeITum9BE1VtoY-63" value="Set WI-FI as Station and Server" style="rounded=1;whiteSpace=wrap;html=1;strokeWidth=1;" vertex="1" parent="WIyWlLk6GJQsqaUBKTNV-1">
          <mxGeometry x="422" y="561.25" width="120" height="60" as="geometry" />
        </mxCell>
        <mxCell id="meUcSHUeITum9BE1VtoY-71" value="" style="edgeStyle=orthogonalEdgeStyle;rounded=0;orthogonalLoop=1;jettySize=auto;html=1;" edge="1" parent="WIyWlLk6GJQsqaUBKTNV-1" source="meUcSHUeITum9BE1VtoY-67" target="meUcSHUeITum9BE1VtoY-70">
          <mxGeometry relative="1" as="geometry" />
        </mxCell>
        <mxCell id="meUcSHUeITum9BE1VtoY-67" value="Init ESP-NOW Protocol" style="rounded=1;whiteSpace=wrap;html=1;strokeWidth=1;" vertex="1" parent="WIyWlLk6GJQsqaUBKTNV-1">
          <mxGeometry x="306" y="561.25" width="90" height="58.75" as="geometry" />
        </mxCell>
        <mxCell id="meUcSHUeITum9BE1VtoY-73" value="" style="edgeStyle=orthogonalEdgeStyle;rounded=0;orthogonalLoop=1;jettySize=auto;html=1;exitX=0.607;exitY=1.013;exitDx=0;exitDy=0;exitPerimeter=0;" edge="1" parent="WIyWlLk6GJQsqaUBKTNV-1" source="meUcSHUeITum9BE1VtoY-70" target="meUcSHUeITum9BE1VtoY-72">
          <mxGeometry relative="1" as="geometry" />
        </mxCell>
        <mxCell id="meUcSHUeITum9BE1VtoY-70" value="esp_now_register_recv_cb(OnDataRecv)" style="shape=process;whiteSpace=wrap;html=1;backgroundOutline=1;strokeWidth=1;" vertex="1" parent="WIyWlLk6GJQsqaUBKTNV-1">
          <mxGeometry x="2.999999999999999" y="561.25" width="280" height="60" as="geometry" />
        </mxCell>
        <mxCell id="meUcSHUeITum9BE1VtoY-88" value="" style="edgeStyle=orthogonalEdgeStyle;rounded=0;orthogonalLoop=1;jettySize=auto;html=1;" edge="1" parent="WIyWlLk6GJQsqaUBKTNV-1" source="meUcSHUeITum9BE1VtoY-72" target="meUcSHUeITum9BE1VtoY-87">
          <mxGeometry relative="1" as="geometry" />
        </mxCell>
        <mxCell id="meUcSHUeITum9BE1VtoY-72" value="If mesage receive" style="rhombus;whiteSpace=wrap;html=1;strokeWidth=1;" vertex="1" parent="WIyWlLk6GJQsqaUBKTNV-1">
          <mxGeometry x="133" y="650" width="80" height="80" as="geometry" />
        </mxCell>
        <mxCell id="meUcSHUeITum9BE1VtoY-74" value="Get MAC Address,&lt;br&gt;Temp val, Hum val.&lt;br&gt;Update int Temp, Hum" style="rounded=1;whiteSpace=wrap;html=1;strokeWidth=1;" vertex="1" parent="WIyWlLk6GJQsqaUBKTNV-1">
          <mxGeometry x="266" y="660" width="120" height="60" as="geometry" />
        </mxCell>
        <mxCell id="meUcSHUeITum9BE1VtoY-78" value="" style="endArrow=classic;html=1;rounded=0;exitX=1;exitY=0.5;exitDx=0;exitDy=0;entryX=0;entryY=0.5;entryDx=0;entryDy=0;" edge="1" parent="WIyWlLk6GJQsqaUBKTNV-1" source="meUcSHUeITum9BE1VtoY-72" target="meUcSHUeITum9BE1VtoY-74">
          <mxGeometry relative="1" as="geometry">
            <mxPoint x="186" y="788.75" as="sourcePoint" />
            <mxPoint x="286" y="788.75" as="targetPoint" />
          </mxGeometry>
        </mxCell>
        <mxCell id="meUcSHUeITum9BE1VtoY-79" value="Yes" style="edgeLabel;resizable=0;html=1;align=center;verticalAlign=middle;strokeWidth=1;" connectable="0" vertex="1" parent="meUcSHUeITum9BE1VtoY-78">
          <mxGeometry relative="1" as="geometry">
            <mxPoint x="-4" as="offset" />
          </mxGeometry>
        </mxCell>
        <mxCell id="meUcSHUeITum9BE1VtoY-91" style="edgeStyle=orthogonalEdgeStyle;rounded=0;orthogonalLoop=1;jettySize=auto;html=1;exitX=0.5;exitY=1;exitDx=0;exitDy=0;entryX=0.25;entryY=0;entryDx=0;entryDy=0;" edge="1" parent="WIyWlLk6GJQsqaUBKTNV-1" source="meUcSHUeITum9BE1VtoY-80" target="meUcSHUeITum9BE1VtoY-63">
          <mxGeometry relative="1" as="geometry">
            <Array as="points">
              <mxPoint x="176" y="490" />
              <mxPoint x="452" y="490" />
            </Array>
          </mxGeometry>
        </mxCell>
        <mxCell id="meUcSHUeITum9BE1VtoY-80" value="No actions&amp;nbsp;" style="rounded=1;whiteSpace=wrap;html=1;strokeWidth=1;" vertex="1" parent="WIyWlLk6GJQsqaUBKTNV-1">
          <mxGeometry x="136" y="263.75" width="80" height="36.25" as="geometry" />
        </mxCell>
        <mxCell id="meUcSHUeITum9BE1VtoY-82" value="" style="endArrow=classic;html=1;rounded=0;entryX=1;entryY=0.5;entryDx=0;entryDy=0;exitX=0;exitY=0.5;exitDx=0;exitDy=0;" edge="1" parent="WIyWlLk6GJQsqaUBKTNV-1" source="meUcSHUeITum9BE1VtoY-35" target="meUcSHUeITum9BE1VtoY-80">
          <mxGeometry relative="1" as="geometry">
            <mxPoint x="136" y="390" as="sourcePoint" />
            <mxPoint x="236" y="390" as="targetPoint" />
          </mxGeometry>
        </mxCell>
        <mxCell id="meUcSHUeITum9BE1VtoY-83" value="No" style="edgeLabel;resizable=0;html=1;align=center;verticalAlign=middle;strokeWidth=1;" connectable="0" vertex="1" parent="meUcSHUeITum9BE1VtoY-82">
          <mxGeometry relative="1" as="geometry" />
        </mxCell>
        <mxCell id="meUcSHUeITum9BE1VtoY-92" style="edgeStyle=orthogonalEdgeStyle;rounded=0;orthogonalLoop=1;jettySize=auto;html=1;exitX=0.5;exitY=1;exitDx=0;exitDy=0;entryX=0;entryY=0.5;entryDx=0;entryDy=0;" edge="1" parent="WIyWlLk6GJQsqaUBKTNV-1" source="meUcSHUeITum9BE1VtoY-84" target="meUcSHUeITum9BE1VtoY-87">
          <mxGeometry relative="1" as="geometry" />
        </mxCell>
        <mxCell id="meUcSHUeITum9BE1VtoY-84" value="No actions&amp;nbsp;" style="rounded=1;whiteSpace=wrap;html=1;strokeWidth=1;" vertex="1" parent="WIyWlLk6GJQsqaUBKTNV-1">
          <mxGeometry x="26.000000000000004" y="675" width="80" height="30" as="geometry" />
        </mxCell>
        <mxCell id="meUcSHUeITum9BE1VtoY-85" value="" style="endArrow=classic;html=1;rounded=0;entryX=1;entryY=0.5;entryDx=0;entryDy=0;exitX=0;exitY=0.5;exitDx=0;exitDy=0;" edge="1" parent="WIyWlLk6GJQsqaUBKTNV-1" target="meUcSHUeITum9BE1VtoY-84" source="meUcSHUeITum9BE1VtoY-72">
          <mxGeometry relative="1" as="geometry">
            <mxPoint x="150" y="570" as="sourcePoint" />
            <mxPoint x="133" y="806.25" as="targetPoint" />
          </mxGeometry>
        </mxCell>
        <mxCell id="meUcSHUeITum9BE1VtoY-86" value="No" style="edgeLabel;resizable=0;html=1;align=center;verticalAlign=middle;strokeWidth=1;" connectable="0" vertex="1" parent="meUcSHUeITum9BE1VtoY-85">
          <mxGeometry relative="1" as="geometry" />
        </mxCell>
        <mxCell id="meUcSHUeITum9BE1VtoY-90" value="" style="edgeStyle=orthogonalEdgeStyle;rounded=0;orthogonalLoop=1;jettySize=auto;html=1;" edge="1" parent="WIyWlLk6GJQsqaUBKTNV-1" source="meUcSHUeITum9BE1VtoY-87" target="meUcSHUeITum9BE1VtoY-89">
          <mxGeometry relative="1" as="geometry" />
        </mxCell>
        <mxCell id="meUcSHUeITum9BE1VtoY-192" style="edgeStyle=orthogonalEdgeStyle;rounded=0;orthogonalLoop=1;jettySize=auto;html=1;exitX=0.5;exitY=1;exitDx=0;exitDy=0;entryX=0.5;entryY=1;entryDx=0;entryDy=0;" edge="1" parent="WIyWlLk6GJQsqaUBKTNV-1" source="meUcSHUeITum9BE1VtoY-189" target="meUcSHUeITum9BE1VtoY-87">
          <mxGeometry relative="1" as="geometry">
            <Array as="points">
              <mxPoint x="578" y="1765" />
              <mxPoint x="578" y="1800" />
              <mxPoint x="16" y="1800" />
              <mxPoint x="16" y="800" />
              <mxPoint x="172" y="800" />
            </Array>
          </mxGeometry>
        </mxCell>
        <mxCell id="meUcSHUeITum9BE1VtoY-87" value="Loop" style="ellipse;whiteSpace=wrap;html=1;strokeWidth=1;" vertex="1" parent="WIyWlLk6GJQsqaUBKTNV-1">
          <mxGeometry x="133" y="760" width="78.5" height="30" as="geometry" />
        </mxCell>
        <mxCell id="meUcSHUeITum9BE1VtoY-104" style="edgeStyle=orthogonalEdgeStyle;rounded=0;orthogonalLoop=1;jettySize=auto;html=1;exitX=0.5;exitY=1;exitDx=0;exitDy=0;entryX=0;entryY=0.5;entryDx=0;entryDy=0;" edge="1" parent="WIyWlLk6GJQsqaUBKTNV-1" source="meUcSHUeITum9BE1VtoY-89" target="meUcSHUeITum9BE1VtoY-94">
          <mxGeometry relative="1" as="geometry">
            <Array as="points">
              <mxPoint x="308" y="813" />
              <mxPoint x="31.000000000000004" y="813" />
              <mxPoint x="31.000000000000004" y="873" />
            </Array>
          </mxGeometry>
        </mxCell>
        <mxCell id="meUcSHUeITum9BE1VtoY-89" value="printLocalTime();" style="shape=process;whiteSpace=wrap;html=1;backgroundOutline=1;strokeWidth=1;" vertex="1" parent="WIyWlLk6GJQsqaUBKTNV-1">
          <mxGeometry x="248" y="757.5" width="120" height="35" as="geometry" />
        </mxCell>
        <mxCell id="meUcSHUeITum9BE1VtoY-94" value="If&amp;nbsp;ActivationCondition() = Dimineata" style="rhombus;whiteSpace=wrap;html=1;strokeWidth=1;" vertex="1" parent="WIyWlLk6GJQsqaUBKTNV-1">
          <mxGeometry x="51" y="820" width="174" height="105" as="geometry" />
        </mxCell>
        <mxCell id="meUcSHUeITum9BE1VtoY-95" value="If StatusCentrala = 1" style="rhombus;whiteSpace=wrap;html=1;strokeWidth=1;" vertex="1" parent="WIyWlLk6GJQsqaUBKTNV-1">
          <mxGeometry x="271" y="825" width="130" height="95" as="geometry" />
        </mxCell>
        <mxCell id="meUcSHUeITum9BE1VtoY-97" value="If Temp &amp;lt; tempval + tempval[OffsetTemp]" style="rhombus;whiteSpace=wrap;html=1;strokeWidth=1;" vertex="1" parent="WIyWlLk6GJQsqaUBKTNV-1">
          <mxGeometry x="441" y="820" width="150.25" height="102.5" as="geometry" />
        </mxCell>
        <mxCell id="meUcSHUeITum9BE1VtoY-100" value="" style="endArrow=classic;html=1;rounded=0;exitX=1;exitY=0.5;exitDx=0;exitDy=0;entryX=0;entryY=0.5;entryDx=0;entryDy=0;" edge="1" parent="WIyWlLk6GJQsqaUBKTNV-1" source="meUcSHUeITum9BE1VtoY-94" target="meUcSHUeITum9BE1VtoY-95">
          <mxGeometry relative="1" as="geometry">
            <mxPoint x="-132" y="797.5" as="sourcePoint" />
            <mxPoint x="-79" y="797.5" as="targetPoint" />
          </mxGeometry>
        </mxCell>
        <mxCell id="meUcSHUeITum9BE1VtoY-101" value="Yes" style="edgeLabel;resizable=0;html=1;align=center;verticalAlign=middle;strokeWidth=1;" connectable="0" vertex="1" parent="meUcSHUeITum9BE1VtoY-100">
          <mxGeometry relative="1" as="geometry">
            <mxPoint x="-4" as="offset" />
          </mxGeometry>
        </mxCell>
        <mxCell id="meUcSHUeITum9BE1VtoY-102" value="" style="endArrow=classic;html=1;rounded=0;exitX=1;exitY=0.5;exitDx=0;exitDy=0;entryX=0;entryY=0.5;entryDx=0;entryDy=0;" edge="1" parent="WIyWlLk6GJQsqaUBKTNV-1" source="meUcSHUeITum9BE1VtoY-95" target="meUcSHUeITum9BE1VtoY-97">
          <mxGeometry relative="1" as="geometry">
            <mxPoint x="235" y="882.5" as="sourcePoint" />
            <mxPoint x="281" y="882.5" as="targetPoint" />
          </mxGeometry>
        </mxCell>
        <mxCell id="meUcSHUeITum9BE1VtoY-103" value="Yes" style="edgeLabel;resizable=0;html=1;align=center;verticalAlign=middle;strokeWidth=1;" connectable="0" vertex="1" parent="meUcSHUeITum9BE1VtoY-102">
          <mxGeometry relative="1" as="geometry">
            <mxPoint x="-4" as="offset" />
          </mxGeometry>
        </mxCell>
        <mxCell id="meUcSHUeITum9BE1VtoY-105" value="If Temp &amp;gt; tempval - tempval[OffsetTemp]" style="rhombus;whiteSpace=wrap;html=1;strokeWidth=1;" vertex="1" parent="WIyWlLk6GJQsqaUBKTNV-1">
          <mxGeometry x="441" y="954.37" width="150.25" height="102.5" as="geometry" />
        </mxCell>
        <mxCell id="meUcSHUeITum9BE1VtoY-106" value="" style="endArrow=classic;html=1;rounded=0;entryX=0;entryY=0.5;entryDx=0;entryDy=0;exitX=0.5;exitY=1;exitDx=0;exitDy=0;" edge="1" parent="WIyWlLk6GJQsqaUBKTNV-1" source="meUcSHUeITum9BE1VtoY-95" target="meUcSHUeITum9BE1VtoY-105">
          <mxGeometry relative="1" as="geometry">
            <mxPoint x="-212" y="797.5" as="sourcePoint" />
            <mxPoint x="-239" y="797.5" as="targetPoint" />
            <Array as="points">
              <mxPoint x="336" y="1006" />
            </Array>
          </mxGeometry>
        </mxCell>
        <mxCell id="meUcSHUeITum9BE1VtoY-107" value="No" style="edgeLabel;resizable=0;html=1;align=center;verticalAlign=middle;strokeWidth=1;" connectable="0" vertex="1" parent="meUcSHUeITum9BE1VtoY-106">
          <mxGeometry relative="1" as="geometry">
            <mxPoint x="44" y="1" as="offset" />
          </mxGeometry>
        </mxCell>
        <mxCell id="meUcSHUeITum9BE1VtoY-141" value="" style="edgeStyle=orthogonalEdgeStyle;rounded=0;orthogonalLoop=1;jettySize=auto;html=1;" edge="1" parent="WIyWlLk6GJQsqaUBKTNV-1" source="meUcSHUeITum9BE1VtoY-110" target="meUcSHUeITum9BE1VtoY-140">
          <mxGeometry relative="1" as="geometry" />
        </mxCell>
        <mxCell id="meUcSHUeITum9BE1VtoY-110" value="StatusCentrala = 0;" style="rounded=1;whiteSpace=wrap;html=1;strokeWidth=1;" vertex="1" parent="WIyWlLk6GJQsqaUBKTNV-1">
          <mxGeometry x="651" y="853.12" width="120" height="36.25" as="geometry" />
        </mxCell>
        <mxCell id="meUcSHUeITum9BE1VtoY-111" value="" style="endArrow=classic;html=1;rounded=0;exitX=1;exitY=0.5;exitDx=0;exitDy=0;entryX=0;entryY=0.5;entryDx=0;entryDy=0;" edge="1" parent="WIyWlLk6GJQsqaUBKTNV-1" source="meUcSHUeITum9BE1VtoY-97" target="meUcSHUeITum9BE1VtoY-110">
          <mxGeometry relative="1" as="geometry">
            <mxPoint x="411" y="882.5" as="sourcePoint" />
            <mxPoint x="451" y="881.25" as="targetPoint" />
          </mxGeometry>
        </mxCell>
        <mxCell id="meUcSHUeITum9BE1VtoY-112" value="Yes" style="edgeLabel;resizable=0;html=1;align=center;verticalAlign=middle;strokeWidth=1;" connectable="0" vertex="1" parent="meUcSHUeITum9BE1VtoY-111">
          <mxGeometry relative="1" as="geometry">
            <mxPoint x="-4" as="offset" />
          </mxGeometry>
        </mxCell>
        <mxCell id="meUcSHUeITum9BE1VtoY-142" value="" style="edgeStyle=orthogonalEdgeStyle;rounded=0;orthogonalLoop=1;jettySize=auto;html=1;" edge="1" parent="WIyWlLk6GJQsqaUBKTNV-1" source="meUcSHUeITum9BE1VtoY-113" target="meUcSHUeITum9BE1VtoY-140">
          <mxGeometry relative="1" as="geometry" />
        </mxCell>
        <mxCell id="meUcSHUeITum9BE1VtoY-113" value="StatusCentrala = 1;" style="rounded=1;whiteSpace=wrap;html=1;strokeWidth=1;" vertex="1" parent="WIyWlLk6GJQsqaUBKTNV-1">
          <mxGeometry x="651" y="987.4999999999999" width="120" height="36.25" as="geometry" />
        </mxCell>
        <mxCell id="meUcSHUeITum9BE1VtoY-114" value="" style="endArrow=classic;html=1;rounded=0;exitX=1;exitY=0.5;exitDx=0;exitDy=0;entryX=0;entryY=0.5;entryDx=0;entryDy=0;" edge="1" parent="WIyWlLk6GJQsqaUBKTNV-1" target="meUcSHUeITum9BE1VtoY-113" source="meUcSHUeITum9BE1VtoY-105">
          <mxGeometry relative="1" as="geometry">
            <mxPoint x="608.5" y="1035.63" as="sourcePoint" />
            <mxPoint x="468.25" y="1045.63" as="targetPoint" />
          </mxGeometry>
        </mxCell>
        <mxCell id="meUcSHUeITum9BE1VtoY-115" value="Yes" style="edgeLabel;resizable=0;html=1;align=center;verticalAlign=middle;strokeWidth=1;" connectable="0" vertex="1" parent="meUcSHUeITum9BE1VtoY-114">
          <mxGeometry relative="1" as="geometry">
            <mxPoint x="-4" as="offset" />
          </mxGeometry>
        </mxCell>
        <mxCell id="meUcSHUeITum9BE1VtoY-116" value="If StatusCentrala = 1" style="rhombus;whiteSpace=wrap;html=1;strokeWidth=1;" vertex="1" parent="WIyWlLk6GJQsqaUBKTNV-1">
          <mxGeometry x="272" y="1102.25" width="130" height="95" as="geometry" />
        </mxCell>
        <mxCell id="meUcSHUeITum9BE1VtoY-117" value="If Temp &amp;lt; tempval + tempval[OffsetTemp]" style="rhombus;whiteSpace=wrap;html=1;strokeWidth=1;" vertex="1" parent="WIyWlLk6GJQsqaUBKTNV-1">
          <mxGeometry x="442" y="1097.25" width="150.25" height="102.5" as="geometry" />
        </mxCell>
        <mxCell id="meUcSHUeITum9BE1VtoY-120" value="" style="endArrow=classic;html=1;rounded=0;exitX=1;exitY=0.5;exitDx=0;exitDy=0;entryX=0;entryY=0.5;entryDx=0;entryDy=0;" edge="1" parent="WIyWlLk6GJQsqaUBKTNV-1" source="meUcSHUeITum9BE1VtoY-116" target="meUcSHUeITum9BE1VtoY-117">
          <mxGeometry relative="1" as="geometry">
            <mxPoint x="236" y="1159.75" as="sourcePoint" />
            <mxPoint x="282" y="1159.75" as="targetPoint" />
          </mxGeometry>
        </mxCell>
        <mxCell id="meUcSHUeITum9BE1VtoY-121" value="Yes" style="edgeLabel;resizable=0;html=1;align=center;verticalAlign=middle;strokeWidth=1;" connectable="0" vertex="1" parent="meUcSHUeITum9BE1VtoY-120">
          <mxGeometry relative="1" as="geometry">
            <mxPoint x="-4" as="offset" />
          </mxGeometry>
        </mxCell>
        <mxCell id="meUcSHUeITum9BE1VtoY-122" value="If Temp &amp;gt; tempval - tempval[OffsetTemp]" style="rhombus;whiteSpace=wrap;html=1;strokeWidth=1;" vertex="1" parent="WIyWlLk6GJQsqaUBKTNV-1">
          <mxGeometry x="441" y="1240" width="150.25" height="102.5" as="geometry" />
        </mxCell>
        <mxCell id="meUcSHUeITum9BE1VtoY-123" value="" style="endArrow=classic;html=1;rounded=0;entryX=0;entryY=0.5;entryDx=0;entryDy=0;exitX=0.5;exitY=1;exitDx=0;exitDy=0;" edge="1" parent="WIyWlLk6GJQsqaUBKTNV-1" source="meUcSHUeITum9BE1VtoY-116" target="meUcSHUeITum9BE1VtoY-122">
          <mxGeometry relative="1" as="geometry">
            <mxPoint x="-211" y="1074.75" as="sourcePoint" />
            <mxPoint x="-238" y="1074.75" as="targetPoint" />
            <Array as="points">
              <mxPoint x="336" y="1291" />
            </Array>
          </mxGeometry>
        </mxCell>
        <mxCell id="meUcSHUeITum9BE1VtoY-124" value="No" style="edgeLabel;resizable=0;html=1;align=center;verticalAlign=middle;strokeWidth=1;" connectable="0" vertex="1" parent="meUcSHUeITum9BE1VtoY-123">
          <mxGeometry relative="1" as="geometry">
            <mxPoint x="44" y="1" as="offset" />
          </mxGeometry>
        </mxCell>
        <mxCell id="meUcSHUeITum9BE1VtoY-145" value="" style="edgeStyle=orthogonalEdgeStyle;rounded=0;orthogonalLoop=1;jettySize=auto;html=1;" edge="1" parent="WIyWlLk6GJQsqaUBKTNV-1" source="meUcSHUeITum9BE1VtoY-125" target="meUcSHUeITum9BE1VtoY-143">
          <mxGeometry relative="1" as="geometry" />
        </mxCell>
        <mxCell id="meUcSHUeITum9BE1VtoY-125" value="StatusCentrala = 0;" style="rounded=1;whiteSpace=wrap;html=1;strokeWidth=1;" vertex="1" parent="WIyWlLk6GJQsqaUBKTNV-1">
          <mxGeometry x="652" y="1130.37" width="120" height="36.25" as="geometry" />
        </mxCell>
        <mxCell id="meUcSHUeITum9BE1VtoY-126" value="" style="endArrow=classic;html=1;rounded=0;exitX=1;exitY=0.5;exitDx=0;exitDy=0;entryX=0;entryY=0.5;entryDx=0;entryDy=0;" edge="1" parent="WIyWlLk6GJQsqaUBKTNV-1" source="meUcSHUeITum9BE1VtoY-117" target="meUcSHUeITum9BE1VtoY-125">
          <mxGeometry relative="1" as="geometry">
            <mxPoint x="412" y="1159.75" as="sourcePoint" />
            <mxPoint x="452" y="1158.5" as="targetPoint" />
          </mxGeometry>
        </mxCell>
        <mxCell id="meUcSHUeITum9BE1VtoY-127" value="Yes" style="edgeLabel;resizable=0;html=1;align=center;verticalAlign=middle;strokeWidth=1;" connectable="0" vertex="1" parent="meUcSHUeITum9BE1VtoY-126">
          <mxGeometry relative="1" as="geometry">
            <mxPoint x="-4" as="offset" />
          </mxGeometry>
        </mxCell>
        <mxCell id="meUcSHUeITum9BE1VtoY-144" value="" style="edgeStyle=orthogonalEdgeStyle;rounded=0;orthogonalLoop=1;jettySize=auto;html=1;" edge="1" parent="WIyWlLk6GJQsqaUBKTNV-1" source="meUcSHUeITum9BE1VtoY-128" target="meUcSHUeITum9BE1VtoY-143">
          <mxGeometry relative="1" as="geometry" />
        </mxCell>
        <mxCell id="meUcSHUeITum9BE1VtoY-128" value="StatusCentrala = 1;" style="rounded=1;whiteSpace=wrap;html=1;strokeWidth=1;" vertex="1" parent="WIyWlLk6GJQsqaUBKTNV-1">
          <mxGeometry x="652" y="1273.13" width="120" height="36.25" as="geometry" />
        </mxCell>
        <mxCell id="meUcSHUeITum9BE1VtoY-129" value="" style="endArrow=classic;html=1;rounded=0;exitX=1;exitY=0.5;exitDx=0;exitDy=0;entryX=0;entryY=0.5;entryDx=0;entryDy=0;" edge="1" parent="WIyWlLk6GJQsqaUBKTNV-1" source="meUcSHUeITum9BE1VtoY-122" target="meUcSHUeITum9BE1VtoY-128">
          <mxGeometry relative="1" as="geometry">
            <mxPoint x="612" y="1312.88" as="sourcePoint" />
            <mxPoint x="471.75" y="1322.88" as="targetPoint" />
          </mxGeometry>
        </mxCell>
        <mxCell id="meUcSHUeITum9BE1VtoY-130" value="Yes" style="edgeLabel;resizable=0;html=1;align=center;verticalAlign=middle;strokeWidth=1;" connectable="0" vertex="1" parent="meUcSHUeITum9BE1VtoY-129">
          <mxGeometry relative="1" as="geometry">
            <mxPoint x="-4" as="offset" />
          </mxGeometry>
        </mxCell>
        <mxCell id="meUcSHUeITum9BE1VtoY-132" value="If&amp;nbsp;ActivationCondition() = Dupamasa" style="rhombus;whiteSpace=wrap;html=1;strokeWidth=1;" vertex="1" parent="WIyWlLk6GJQsqaUBKTNV-1">
          <mxGeometry x="51" y="1097.25" width="174" height="105" as="geometry" />
        </mxCell>
        <mxCell id="meUcSHUeITum9BE1VtoY-133" value="" style="endArrow=classic;html=1;rounded=0;exitX=1;exitY=0.5;exitDx=0;exitDy=0;entryX=0;entryY=0.5;entryDx=0;entryDy=0;" edge="1" parent="WIyWlLk6GJQsqaUBKTNV-1" source="meUcSHUeITum9BE1VtoY-132" target="meUcSHUeITum9BE1VtoY-116">
          <mxGeometry relative="1" as="geometry">
            <mxPoint x="225" y="862.25" as="sourcePoint" />
            <mxPoint x="271" y="862.25" as="targetPoint" />
          </mxGeometry>
        </mxCell>
        <mxCell id="meUcSHUeITum9BE1VtoY-134" value="Yes" style="edgeLabel;resizable=0;html=1;align=center;verticalAlign=middle;strokeWidth=1;" connectable="0" vertex="1" parent="meUcSHUeITum9BE1VtoY-133">
          <mxGeometry relative="1" as="geometry">
            <mxPoint x="-4" as="offset" />
          </mxGeometry>
        </mxCell>
        <mxCell id="meUcSHUeITum9BE1VtoY-135" value="" style="endArrow=classic;html=1;rounded=0;exitX=0.5;exitY=1;exitDx=0;exitDy=0;entryX=0.5;entryY=0;entryDx=0;entryDy=0;" edge="1" parent="WIyWlLk6GJQsqaUBKTNV-1" source="meUcSHUeITum9BE1VtoY-94" target="meUcSHUeITum9BE1VtoY-132">
          <mxGeometry relative="1" as="geometry">
            <mxPoint x="245" y="892.5" as="sourcePoint" />
            <mxPoint x="291" y="892.5" as="targetPoint" />
          </mxGeometry>
        </mxCell>
        <mxCell id="meUcSHUeITum9BE1VtoY-136" value="No" style="edgeLabel;resizable=0;html=1;align=center;verticalAlign=middle;strokeWidth=1;" connectable="0" vertex="1" parent="meUcSHUeITum9BE1VtoY-135">
          <mxGeometry relative="1" as="geometry">
            <mxPoint x="-4" as="offset" />
          </mxGeometry>
        </mxCell>
        <mxCell id="meUcSHUeITum9BE1VtoY-138" value="" style="endArrow=classic;html=1;rounded=0;exitX=0.5;exitY=1;exitDx=0;exitDy=0;" edge="1" parent="WIyWlLk6GJQsqaUBKTNV-1" source="meUcSHUeITum9BE1VtoY-97" target="meUcSHUeITum9BE1VtoY-105">
          <mxGeometry relative="1" as="geometry">
            <mxPoint x="601.25" y="881.25" as="sourcePoint" />
            <mxPoint x="661" y="881.2449999999999" as="targetPoint" />
          </mxGeometry>
        </mxCell>
        <mxCell id="meUcSHUeITum9BE1VtoY-139" value="No" style="edgeLabel;resizable=0;html=1;align=center;verticalAlign=middle;strokeWidth=1;" connectable="0" vertex="1" parent="meUcSHUeITum9BE1VtoY-138">
          <mxGeometry relative="1" as="geometry">
            <mxPoint x="-4" as="offset" />
          </mxGeometry>
        </mxCell>
        <mxCell id="meUcSHUeITum9BE1VtoY-197" style="edgeStyle=orthogonalEdgeStyle;rounded=0;orthogonalLoop=1;jettySize=auto;html=1;exitX=1;exitY=0.5;exitDx=0;exitDy=0;entryX=1;entryY=0;entryDx=0;entryDy=0;" edge="1" parent="WIyWlLk6GJQsqaUBKTNV-1" source="meUcSHUeITum9BE1VtoY-140" target="meUcSHUeITum9BE1VtoY-132">
          <mxGeometry relative="1" as="geometry">
            <Array as="points">
              <mxPoint x="792" y="936" />
              <mxPoint x="792" y="1090" />
              <mxPoint x="182" y="1090" />
            </Array>
          </mxGeometry>
        </mxCell>
        <mxCell id="meUcSHUeITum9BE1VtoY-140" value="Program = 1;" style="rounded=1;whiteSpace=wrap;html=1;strokeWidth=1;" vertex="1" parent="WIyWlLk6GJQsqaUBKTNV-1">
          <mxGeometry x="652" y="920" width="120" height="32" as="geometry" />
        </mxCell>
        <mxCell id="meUcSHUeITum9BE1VtoY-198" style="edgeStyle=orthogonalEdgeStyle;rounded=0;orthogonalLoop=1;jettySize=auto;html=1;exitX=1;exitY=0.5;exitDx=0;exitDy=0;entryX=0.89;entryY=0.357;entryDx=0;entryDy=0;entryPerimeter=0;" edge="1" parent="WIyWlLk6GJQsqaUBKTNV-1" source="meUcSHUeITum9BE1VtoY-143" target="meUcSHUeITum9BE1VtoY-168">
          <mxGeometry relative="1" as="geometry">
            <Array as="points">
              <mxPoint x="792" y="1216" />
              <mxPoint x="792" y="1370" />
              <mxPoint x="207" y="1370" />
            </Array>
          </mxGeometry>
        </mxCell>
        <mxCell id="meUcSHUeITum9BE1VtoY-143" value="Program = 2;" style="rounded=1;whiteSpace=wrap;html=1;strokeWidth=1;" vertex="1" parent="WIyWlLk6GJQsqaUBKTNV-1">
          <mxGeometry x="652" y="1199.75" width="120" height="32" as="geometry" />
        </mxCell>
        <mxCell id="meUcSHUeITum9BE1VtoY-146" value="" style="endArrow=classic;html=1;rounded=0;exitX=0.5;exitY=1;exitDx=0;exitDy=0;" edge="1" parent="WIyWlLk6GJQsqaUBKTNV-1" source="meUcSHUeITum9BE1VtoY-117" target="meUcSHUeITum9BE1VtoY-122">
          <mxGeometry relative="1" as="geometry">
            <mxPoint x="526.125" y="912.25" as="sourcePoint" />
            <mxPoint x="526.125" y="977.25" as="targetPoint" />
          </mxGeometry>
        </mxCell>
        <mxCell id="meUcSHUeITum9BE1VtoY-147" value="No" style="edgeLabel;resizable=0;html=1;align=center;verticalAlign=middle;strokeWidth=1;" connectable="0" vertex="1" parent="meUcSHUeITum9BE1VtoY-146">
          <mxGeometry relative="1" as="geometry">
            <mxPoint x="-4" as="offset" />
          </mxGeometry>
        </mxCell>
        <mxCell id="meUcSHUeITum9BE1VtoY-151" value="" style="endArrow=classic;html=1;rounded=0;exitX=0.5;exitY=1;exitDx=0;exitDy=0;entryX=0.632;entryY=0.095;entryDx=0;entryDy=0;entryPerimeter=0;" edge="1" parent="WIyWlLk6GJQsqaUBKTNV-1" source="meUcSHUeITum9BE1VtoY-105" target="meUcSHUeITum9BE1VtoY-132">
          <mxGeometry relative="1" as="geometry">
            <mxPoint x="526.125" y="932.5" as="sourcePoint" />
            <mxPoint x="526.125" y="997.5" as="targetPoint" />
            <Array as="points">
              <mxPoint x="516" y="1080" />
              <mxPoint x="161" y="1080" />
            </Array>
          </mxGeometry>
        </mxCell>
        <mxCell id="meUcSHUeITum9BE1VtoY-152" value="No" style="edgeLabel;resizable=0;html=1;align=center;verticalAlign=middle;strokeWidth=1;" connectable="0" vertex="1" parent="meUcSHUeITum9BE1VtoY-151">
          <mxGeometry relative="1" as="geometry">
            <mxPoint x="-4" as="offset" />
          </mxGeometry>
        </mxCell>
        <mxCell id="meUcSHUeITum9BE1VtoY-153" value="If StatusCentrala = 1" style="rhombus;whiteSpace=wrap;html=1;strokeWidth=1;" vertex="1" parent="WIyWlLk6GJQsqaUBKTNV-1">
          <mxGeometry x="272" y="1385" width="130" height="95" as="geometry" />
        </mxCell>
        <mxCell id="meUcSHUeITum9BE1VtoY-154" value="If Temp &amp;lt; tempval + tempval[OffsetTemp]" style="rhombus;whiteSpace=wrap;html=1;strokeWidth=1;" vertex="1" parent="WIyWlLk6GJQsqaUBKTNV-1">
          <mxGeometry x="442" y="1380" width="150.25" height="102.5" as="geometry" />
        </mxCell>
        <mxCell id="meUcSHUeITum9BE1VtoY-155" value="" style="endArrow=classic;html=1;rounded=0;exitX=1;exitY=0.5;exitDx=0;exitDy=0;entryX=0;entryY=0.5;entryDx=0;entryDy=0;" edge="1" parent="WIyWlLk6GJQsqaUBKTNV-1" source="meUcSHUeITum9BE1VtoY-153" target="meUcSHUeITum9BE1VtoY-154">
          <mxGeometry relative="1" as="geometry">
            <mxPoint x="236" y="1442.5" as="sourcePoint" />
            <mxPoint x="282" y="1442.5" as="targetPoint" />
          </mxGeometry>
        </mxCell>
        <mxCell id="meUcSHUeITum9BE1VtoY-156" value="Yes" style="edgeLabel;resizable=0;html=1;align=center;verticalAlign=middle;strokeWidth=1;" connectable="0" vertex="1" parent="meUcSHUeITum9BE1VtoY-155">
          <mxGeometry relative="1" as="geometry">
            <mxPoint x="-4" as="offset" />
          </mxGeometry>
        </mxCell>
        <mxCell id="meUcSHUeITum9BE1VtoY-157" value="If Temp &amp;gt; tempval - tempval[OffsetTemp]" style="rhombus;whiteSpace=wrap;html=1;strokeWidth=1;" vertex="1" parent="WIyWlLk6GJQsqaUBKTNV-1">
          <mxGeometry x="443.5" y="1526.5" width="150.25" height="102.5" as="geometry" />
        </mxCell>
        <mxCell id="meUcSHUeITum9BE1VtoY-158" value="" style="endArrow=classic;html=1;rounded=0;entryX=0;entryY=0.5;entryDx=0;entryDy=0;exitX=0.5;exitY=1;exitDx=0;exitDy=0;" edge="1" parent="WIyWlLk6GJQsqaUBKTNV-1" source="meUcSHUeITum9BE1VtoY-153" target="meUcSHUeITum9BE1VtoY-157">
          <mxGeometry relative="1" as="geometry">
            <mxPoint x="-211" y="1357.5" as="sourcePoint" />
            <mxPoint x="-238" y="1357.5" as="targetPoint" />
            <Array as="points">
              <mxPoint x="337" y="1578" />
            </Array>
          </mxGeometry>
        </mxCell>
        <mxCell id="meUcSHUeITum9BE1VtoY-159" value="No" style="edgeLabel;resizable=0;html=1;align=center;verticalAlign=middle;strokeWidth=1;" connectable="0" vertex="1" parent="meUcSHUeITum9BE1VtoY-158">
          <mxGeometry relative="1" as="geometry">
            <mxPoint x="44" y="1" as="offset" />
          </mxGeometry>
        </mxCell>
        <mxCell id="meUcSHUeITum9BE1VtoY-160" value="" style="edgeStyle=orthogonalEdgeStyle;rounded=0;orthogonalLoop=1;jettySize=auto;html=1;" edge="1" parent="WIyWlLk6GJQsqaUBKTNV-1" source="meUcSHUeITum9BE1VtoY-161" target="meUcSHUeITum9BE1VtoY-171">
          <mxGeometry relative="1" as="geometry" />
        </mxCell>
        <mxCell id="meUcSHUeITum9BE1VtoY-161" value="StatusCentrala = 0;" style="rounded=1;whiteSpace=wrap;html=1;strokeWidth=1;" vertex="1" parent="WIyWlLk6GJQsqaUBKTNV-1">
          <mxGeometry x="652" y="1413.12" width="120" height="36.25" as="geometry" />
        </mxCell>
        <mxCell id="meUcSHUeITum9BE1VtoY-162" value="" style="endArrow=classic;html=1;rounded=0;exitX=1;exitY=0.5;exitDx=0;exitDy=0;entryX=0;entryY=0.5;entryDx=0;entryDy=0;" edge="1" parent="WIyWlLk6GJQsqaUBKTNV-1" source="meUcSHUeITum9BE1VtoY-154" target="meUcSHUeITum9BE1VtoY-161">
          <mxGeometry relative="1" as="geometry">
            <mxPoint x="412" y="1442.5" as="sourcePoint" />
            <mxPoint x="452" y="1441.25" as="targetPoint" />
          </mxGeometry>
        </mxCell>
        <mxCell id="meUcSHUeITum9BE1VtoY-163" value="Yes" style="edgeLabel;resizable=0;html=1;align=center;verticalAlign=middle;strokeWidth=1;" connectable="0" vertex="1" parent="meUcSHUeITum9BE1VtoY-162">
          <mxGeometry relative="1" as="geometry">
            <mxPoint x="-4" as="offset" />
          </mxGeometry>
        </mxCell>
        <mxCell id="meUcSHUeITum9BE1VtoY-193" value="" style="edgeStyle=orthogonalEdgeStyle;rounded=0;orthogonalLoop=1;jettySize=auto;html=1;" edge="1" parent="WIyWlLk6GJQsqaUBKTNV-1" source="meUcSHUeITum9BE1VtoY-165" target="meUcSHUeITum9BE1VtoY-171">
          <mxGeometry relative="1" as="geometry" />
        </mxCell>
        <mxCell id="meUcSHUeITum9BE1VtoY-165" value="StatusCentrala = 1;" style="rounded=1;whiteSpace=wrap;html=1;strokeWidth=1;" vertex="1" parent="WIyWlLk6GJQsqaUBKTNV-1">
          <mxGeometry x="652" y="1559.63" width="120" height="36.25" as="geometry" />
        </mxCell>
        <mxCell id="meUcSHUeITum9BE1VtoY-166" value="" style="endArrow=classic;html=1;rounded=0;exitX=1;exitY=0.5;exitDx=0;exitDy=0;entryX=0;entryY=0.5;entryDx=0;entryDy=0;" edge="1" parent="WIyWlLk6GJQsqaUBKTNV-1" source="meUcSHUeITum9BE1VtoY-157" target="meUcSHUeITum9BE1VtoY-165">
          <mxGeometry relative="1" as="geometry">
            <mxPoint x="611" y="1574.63" as="sourcePoint" />
            <mxPoint x="470.75" y="1584.63" as="targetPoint" />
          </mxGeometry>
        </mxCell>
        <mxCell id="meUcSHUeITum9BE1VtoY-167" value="Yes" style="edgeLabel;resizable=0;html=1;align=center;verticalAlign=middle;strokeWidth=1;" connectable="0" vertex="1" parent="meUcSHUeITum9BE1VtoY-166">
          <mxGeometry relative="1" as="geometry">
            <mxPoint x="-4" as="offset" />
          </mxGeometry>
        </mxCell>
        <mxCell id="meUcSHUeITum9BE1VtoY-168" value="If&amp;nbsp;ActivationCondition() = Seara" style="rhombus;whiteSpace=wrap;html=1;strokeWidth=1;" vertex="1" parent="WIyWlLk6GJQsqaUBKTNV-1">
          <mxGeometry x="49.5" y="1371.25" width="177" height="122.5" as="geometry" />
        </mxCell>
        <mxCell id="meUcSHUeITum9BE1VtoY-169" value="" style="endArrow=classic;html=1;rounded=0;exitX=1;exitY=0.5;exitDx=0;exitDy=0;entryX=0;entryY=0.5;entryDx=0;entryDy=0;" edge="1" parent="WIyWlLk6GJQsqaUBKTNV-1" source="meUcSHUeITum9BE1VtoY-168" target="meUcSHUeITum9BE1VtoY-153">
          <mxGeometry relative="1" as="geometry">
            <mxPoint x="225" y="1145" as="sourcePoint" />
            <mxPoint x="271" y="1145" as="targetPoint" />
          </mxGeometry>
        </mxCell>
        <mxCell id="meUcSHUeITum9BE1VtoY-170" value="Yes" style="edgeLabel;resizable=0;html=1;align=center;verticalAlign=middle;strokeWidth=1;" connectable="0" vertex="1" parent="meUcSHUeITum9BE1VtoY-169">
          <mxGeometry relative="1" as="geometry">
            <mxPoint x="-4" as="offset" />
          </mxGeometry>
        </mxCell>
        <mxCell id="meUcSHUeITum9BE1VtoY-199" style="edgeStyle=orthogonalEdgeStyle;rounded=0;orthogonalLoop=1;jettySize=auto;html=1;exitX=1;exitY=0.5;exitDx=0;exitDy=0;entryX=0.794;entryY=0.3;entryDx=0;entryDy=0;entryPerimeter=0;" edge="1" parent="WIyWlLk6GJQsqaUBKTNV-1" source="meUcSHUeITum9BE1VtoY-171" target="WIyWlLk6GJQsqaUBKTNV-6">
          <mxGeometry relative="1" as="geometry">
            <Array as="points">
              <mxPoint x="792" y="1510" />
              <mxPoint x="792" y="1650" />
              <mxPoint x="178" y="1650" />
            </Array>
          </mxGeometry>
        </mxCell>
        <mxCell id="meUcSHUeITum9BE1VtoY-171" value="Program = 3;" style="rounded=1;whiteSpace=wrap;html=1;strokeWidth=1;" vertex="1" parent="WIyWlLk6GJQsqaUBKTNV-1">
          <mxGeometry x="652" y="1493.75" width="120" height="32" as="geometry" />
        </mxCell>
        <mxCell id="meUcSHUeITum9BE1VtoY-172" value="" style="endArrow=classic;html=1;rounded=0;exitX=0.5;exitY=1;exitDx=0;exitDy=0;" edge="1" parent="WIyWlLk6GJQsqaUBKTNV-1" source="meUcSHUeITum9BE1VtoY-154" target="meUcSHUeITum9BE1VtoY-157">
          <mxGeometry relative="1" as="geometry">
            <mxPoint x="526.125" y="1195" as="sourcePoint" />
            <mxPoint x="526.125" y="1260" as="targetPoint" />
          </mxGeometry>
        </mxCell>
        <mxCell id="meUcSHUeITum9BE1VtoY-173" value="No" style="edgeLabel;resizable=0;html=1;align=center;verticalAlign=middle;strokeWidth=1;" connectable="0" vertex="1" parent="meUcSHUeITum9BE1VtoY-172">
          <mxGeometry relative="1" as="geometry">
            <mxPoint x="-4" as="offset" />
          </mxGeometry>
        </mxCell>
        <mxCell id="meUcSHUeITum9BE1VtoY-174" value="" style="endArrow=classic;html=1;rounded=0;exitX=0.5;exitY=1;exitDx=0;exitDy=0;entryX=1;entryY=0;entryDx=0;entryDy=0;" edge="1" parent="WIyWlLk6GJQsqaUBKTNV-1" source="meUcSHUeITum9BE1VtoY-122" target="meUcSHUeITum9BE1VtoY-168">
          <mxGeometry relative="1" as="geometry">
            <mxPoint x="514.575" y="1377.25" as="sourcePoint" />
            <mxPoint x="159.41800000000012" y="1414.725" as="targetPoint" />
            <Array as="points">
              <mxPoint x="516" y="1360" />
              <mxPoint x="182" y="1360" />
            </Array>
          </mxGeometry>
        </mxCell>
        <mxCell id="meUcSHUeITum9BE1VtoY-175" value="No" style="edgeLabel;resizable=0;html=1;align=center;verticalAlign=middle;strokeWidth=1;" connectable="0" vertex="1" parent="meUcSHUeITum9BE1VtoY-174">
          <mxGeometry relative="1" as="geometry">
            <mxPoint x="-4" as="offset" />
          </mxGeometry>
        </mxCell>
        <mxCell id="meUcSHUeITum9BE1VtoY-176" value="" style="endArrow=classic;html=1;rounded=0;exitX=0.5;exitY=1;exitDx=0;exitDy=0;entryX=0.5;entryY=0;entryDx=0;entryDy=0;" edge="1" parent="WIyWlLk6GJQsqaUBKTNV-1" source="meUcSHUeITum9BE1VtoY-132" target="meUcSHUeITum9BE1VtoY-168">
          <mxGeometry relative="1" as="geometry">
            <mxPoint x="-72" y="1166.62" as="sourcePoint" />
            <mxPoint x="-72" y="1359.12" as="targetPoint" />
          </mxGeometry>
        </mxCell>
        <mxCell id="meUcSHUeITum9BE1VtoY-177" value="No" style="edgeLabel;resizable=0;html=1;align=center;verticalAlign=middle;strokeWidth=1;" connectable="0" vertex="1" parent="meUcSHUeITum9BE1VtoY-176">
          <mxGeometry relative="1" as="geometry">
            <mxPoint x="-4" as="offset" />
          </mxGeometry>
        </mxCell>
        <mxCell id="meUcSHUeITum9BE1VtoY-178" value="" style="endArrow=classic;html=1;rounded=0;exitX=0.5;exitY=1;exitDx=0;exitDy=0;entryX=0.676;entryY=0.144;entryDx=0;entryDy=0;entryPerimeter=0;" edge="1" parent="WIyWlLk6GJQsqaUBKTNV-1" source="meUcSHUeITum9BE1VtoY-157" target="WIyWlLk6GJQsqaUBKTNV-6">
          <mxGeometry relative="1" as="geometry">
            <mxPoint x="270" y="1629.01" as="sourcePoint" />
            <mxPoint x="176" y="1680" as="targetPoint" />
            <Array as="points">
              <mxPoint x="160" y="1632" />
            </Array>
          </mxGeometry>
        </mxCell>
        <mxCell id="meUcSHUeITum9BE1VtoY-179" value="No" style="edgeLabel;resizable=0;html=1;align=center;verticalAlign=middle;strokeWidth=1;" connectable="0" vertex="1" parent="meUcSHUeITum9BE1VtoY-178">
          <mxGeometry relative="1" as="geometry">
            <mxPoint x="-4" as="offset" />
          </mxGeometry>
        </mxCell>
        <mxCell id="meUcSHUeITum9BE1VtoY-180" value="" style="endArrow=classic;html=1;rounded=0;exitX=0.5;exitY=1;exitDx=0;exitDy=0;entryX=0.5;entryY=0;entryDx=0;entryDy=0;" edge="1" parent="WIyWlLk6GJQsqaUBKTNV-1" source="meUcSHUeITum9BE1VtoY-168" target="WIyWlLk6GJQsqaUBKTNV-6">
          <mxGeometry relative="1" as="geometry">
            <mxPoint x="49.5" y="1496.25" as="sourcePoint" />
            <mxPoint x="48" y="1701.25" as="targetPoint" />
          </mxGeometry>
        </mxCell>
        <mxCell id="meUcSHUeITum9BE1VtoY-181" value="No" style="edgeLabel;resizable=0;html=1;align=center;verticalAlign=middle;strokeWidth=1;" connectable="0" vertex="1" parent="meUcSHUeITum9BE1VtoY-180">
          <mxGeometry relative="1" as="geometry">
            <mxPoint x="-4" as="offset" />
          </mxGeometry>
        </mxCell>
        <mxCell id="meUcSHUeITum9BE1VtoY-190" style="edgeStyle=orthogonalEdgeStyle;rounded=0;orthogonalLoop=1;jettySize=auto;html=1;exitX=1;exitY=0.5;exitDx=0;exitDy=0;entryX=0;entryY=0.25;entryDx=0;entryDy=0;" edge="1" parent="WIyWlLk6GJQsqaUBKTNV-1" source="meUcSHUeITum9BE1VtoY-182" target="meUcSHUeITum9BE1VtoY-189">
          <mxGeometry relative="1" as="geometry" />
        </mxCell>
        <mxCell id="meUcSHUeITum9BE1VtoY-182" value="digitalWrite(Releu,HIGH);" style="rounded=1;whiteSpace=wrap;html=1;strokeWidth=1;" vertex="1" parent="WIyWlLk6GJQsqaUBKTNV-1">
          <mxGeometry x="254.75" y="1681.87" width="140" height="36.25" as="geometry" />
        </mxCell>
        <mxCell id="meUcSHUeITum9BE1VtoY-183" value="" style="endArrow=classic;html=1;rounded=0;exitX=1;exitY=0.5;exitDx=0;exitDy=0;entryX=0;entryY=0.5;entryDx=0;entryDy=0;" edge="1" parent="WIyWlLk6GJQsqaUBKTNV-1" target="meUcSHUeITum9BE1VtoY-182" source="WIyWlLk6GJQsqaUBKTNV-6">
          <mxGeometry relative="1" as="geometry">
            <mxPoint x="236.13" y="1700" as="sourcePoint" />
            <mxPoint x="113.13" y="1706.88" as="targetPoint" />
          </mxGeometry>
        </mxCell>
        <mxCell id="meUcSHUeITum9BE1VtoY-184" value="Yes" style="edgeLabel;resizable=0;html=1;align=center;verticalAlign=middle;strokeWidth=1;" connectable="0" vertex="1" parent="meUcSHUeITum9BE1VtoY-183">
          <mxGeometry relative="1" as="geometry">
            <mxPoint x="-4" as="offset" />
          </mxGeometry>
        </mxCell>
        <mxCell id="meUcSHUeITum9BE1VtoY-186" value="" style="endArrow=classic;html=1;rounded=0;exitX=0.5;exitY=1;exitDx=0;exitDy=0;entryX=0;entryY=0.5;entryDx=0;entryDy=0;" edge="1" parent="WIyWlLk6GJQsqaUBKTNV-1" source="WIyWlLk6GJQsqaUBKTNV-6" target="meUcSHUeITum9BE1VtoY-188">
          <mxGeometry relative="1" as="geometry">
            <mxPoint x="523.875" y="1455" as="sourcePoint" />
            <mxPoint x="133.75" y="1785" as="targetPoint" />
            <Array as="points">
              <mxPoint x="133.75" y="1775" />
            </Array>
          </mxGeometry>
        </mxCell>
        <mxCell id="meUcSHUeITum9BE1VtoY-187" value="No" style="edgeLabel;resizable=0;html=1;align=center;verticalAlign=middle;strokeWidth=1;" connectable="0" vertex="1" parent="meUcSHUeITum9BE1VtoY-186">
          <mxGeometry relative="1" as="geometry">
            <mxPoint x="-4" as="offset" />
          </mxGeometry>
        </mxCell>
        <mxCell id="meUcSHUeITum9BE1VtoY-191" style="edgeStyle=orthogonalEdgeStyle;rounded=0;orthogonalLoop=1;jettySize=auto;html=1;exitX=1;exitY=0.5;exitDx=0;exitDy=0;entryX=0;entryY=0.75;entryDx=0;entryDy=0;" edge="1" parent="WIyWlLk6GJQsqaUBKTNV-1" source="meUcSHUeITum9BE1VtoY-188" target="meUcSHUeITum9BE1VtoY-189">
          <mxGeometry relative="1" as="geometry" />
        </mxCell>
        <mxCell id="meUcSHUeITum9BE1VtoY-188" value="digitalWrite(Releu,HIGH);" style="rounded=1;whiteSpace=wrap;html=1;strokeWidth=1;" vertex="1" parent="WIyWlLk6GJQsqaUBKTNV-1">
          <mxGeometry x="254.75" y="1755" width="140" height="36.25" as="geometry" />
        </mxCell>
        <mxCell id="meUcSHUeITum9BE1VtoY-189" value="WebSoketUpdate();" style="shape=process;whiteSpace=wrap;html=1;backgroundOutline=1;strokeWidth=1;" vertex="1" parent="WIyWlLk6GJQsqaUBKTNV-1">
          <mxGeometry x="505.75" y="1705" width="139" height="60" as="geometry" />
        </mxCell>
      </root>
    </mxGraphModel>
  </diagram>
</mxfile>
